<svg width="20" height="16" viewBox="0 0 20 16" fill="none" xmlns="http://www.w3.org/2000/svg">
<path d="M17.6676 0.911621H2.33242C1.04406 0.911621 0 1.95568 0 3.24369V12.7565C0 14.0445 1.04406 15.0886 2.33242 15.0886H17.6676C18.9556 15.0886 20 14.0445 20 12.7565V3.24369C20 1.95568 18.9556 0.911621 17.6676 0.911621ZM18.8863 13.3848L18.4423 13.9106L12.2249 8.83631L11.262 9.75248C10.5484 10.4078 9.45164 10.4078 8.73801 9.75248L7.77512 8.83631L1.55766 13.9106L1.11367 13.3848L6.95117 8.05213L1.07543 2.5301L1.42281 2.06982L10 8.56885L18.5771 2.06982L18.9243 2.5301L13.0489 8.05213L18.8863 13.3848Z" fill="#262626"/>
</svg>
