<svg width="32" height="30" viewBox="0 0 32 30" fill="none" xmlns="http://www.w3.org/2000/svg">
<path d="M9.56329 17.125C12.4972 17.1251 14.8758 19.5035 14.8758 22.4375C14.8758 26.5451 11.5458 29.8749 7.43829 29.875C4.68062 29.875 2.27521 28.3732 0.991999 26.1484C0.796209 25.8089 0.80258 25.3894 1.00958 25.0566C1.21678 24.7238 1.59102 24.5318 1.98223 24.5576C2.02974 24.5608 2.07774 24.5625 2.12579 24.5625C3.29931 24.5624 4.25079 23.611 4.25079 22.4375C4.25079 19.5035 6.62924 17.125 9.56329 17.125ZM13.9725 11.5459C16.9137 12.7379 19.2605 15.0854 20.4529 18.0264C19.4914 18.747 18.4811 19.4062 17.4246 19.9932L16.7117 20.3887C16.008 17.9286 14.0713 15.9906 11.6111 15.2871L12.0066 14.5752C12.5936 13.5187 13.2518 12.5075 13.9725 11.5459ZM29.1815 0.125C30.669 0.125 31.8756 1.33083 31.8758 2.81836C31.8758 3.35011 31.7176 3.87004 31.4227 4.3125L26.6258 11.5078C25.3362 13.4421 23.8014 15.19 22.0682 16.7148C20.6955 13.7201 18.2789 11.304 15.284 9.93164C16.8089 8.19823 18.5576 6.66365 20.492 5.37402L27.6873 0.577148C28.1296 0.28226 28.6498 0.125103 29.1815 0.125Z" fill="#262626"/>
</svg>
