<svg width="27" height="28" viewBox="0 0 27 28" fill="none" xmlns="http://www.w3.org/2000/svg">
<path d="M22.3643 0.1875C20.8973 0.1875 19.708 1.37674 19.708 2.84375V25.1562C19.708 26.6233 20.8973 27.8125 22.3643 27.8125H23.4268C24.8938 27.8125 26.083 26.6233 26.083 25.1562V2.84375C26.083 1.37674 24.8938 0.1875 23.4268 0.1875H22.3643Z" fill="#262626"/>
<path d="M10.1455 9.21875C10.1455 7.75174 11.3348 6.5625 12.8018 6.5625H13.8643C15.3313 6.5625 16.5205 7.75174 16.5205 9.21875V25.1562C16.5205 26.6233 15.3313 27.8125 13.8643 27.8125H12.8018C11.3348 27.8125 10.1455 26.6233 10.1455 25.1562V9.21875Z" fill="#262626"/>
<path d="M0.583008 15.5938C0.583008 14.1267 1.77225 12.9375 3.23926 12.9375H4.30176C5.76876 12.9375 6.95801 14.1267 6.95801 15.5938V25.1562C6.95801 26.6233 5.76876 27.8125 4.30176 27.8125H3.23926C1.77225 27.8125 0.583008 26.6233 0.583008 25.1562V15.5938Z" fill="#262626"/>
</svg>
