<svg width="27" height="30" viewBox="0 0 27 30" fill="none" xmlns="http://www.w3.org/2000/svg">
<path fill-rule="evenodd" clip-rule="evenodd" d="M17.3719 0.259515C17.7986 0.497434 18.0081 0.995722 17.8796 1.4671L15.0581 11.8125H25.3545C25.7776 11.8125 26.1604 12.0635 26.329 12.4516C26.4976 12.8396 26.4199 13.2907 26.1313 13.6L11.2563 29.5375C10.9229 29.8947 10.3889 29.9785 9.96214 29.7406C9.53538 29.5026 9.3259 29.0044 9.45445 28.533L12.2759 18.1875H1.97952C1.55643 18.1875 1.17367 17.9365 1.00505 17.5485C0.836427 17.1605 0.914091 16.7094 1.20277 16.4001L16.0778 0.462573C16.4111 0.105385 16.9451 0.0215962 17.3719 0.259515Z" fill="#262626"/>
</svg>
